<?xml version="1.0" encoding="utf-8" standalone="no"?>
<!DOCTYPE svg PUBLIC "-//W3C//DTD SVG 1.1//EN"
  "http://www.w3.org/Graphics/SVG/1.1/DTD/svg11.dtd">
<svg xmlns:xlink="http://www.w3.org/1999/xlink" width="604.8pt" height="252pt" viewBox="0 0 604.8 252" xmlns="http://www.w3.org/2000/svg" version="1.1">
 <metadata>
  <rdf:RDF xmlns:dc="http://purl.org/dc/elements/1.1/" xmlns:cc="http://creativecommons.org/ns#" xmlns:rdf="http://www.w3.org/1999/02/22-rdf-syntax-ns#">
   <cc:Work>
    <dc:type rdf:resource="http://purl.org/dc/dcmitype/StillImage"/>
    <dc:date>2026-10-06T17:47:47.716698</dc:date>
    <dc:format>image/svg+xml</dc:format>
    <dc:creator>
     <cc:Agent>
      <dc:title>Matplotlib v3.11.1, https://matplotlib.org/</dc:title>
     </cc:Agent>
    </dc:creator>
   </cc:Work>
  </rdf:RDF>
 </metadata>
 <defs>
  <style type="text/css">*{stroke-linejoin: round; stroke-linecap: butt}</style>
 </defs>
 <g id="figure_1">
  <g id="patch_1">
   <path d="M 0 252
L 604.8 252
L 604.8 0
L 0 0
z
" style="fill: #ffffff"/>
  </g>
  <g id="axes_1">
   <g id="patch_2">
    <path d="M 160.272 209.16
L 489.888 209.16
L 489.888 35.28
L 160.272 35.28
z
" style="fill: #ffffff"/>
   </g>
   <g id="patch_3">
    <path d="M -4.536 170.9064
L 585.47664 170.9064
L 585.47664 208.2906
L -4.536 208.2906
z
" style="fill: #edf5f8"/>
   </g>
   <g id="matplotlib.axis_1">
    <g id="xtick_1">
     <g id="line2d_1">
      <path d="M 160.272 209.16
L 160.272 35.28
" clip-path="url(#p2ff29ade0c)" style="fill: none; stroke: #e6eeee; stroke-width: 0.8; stroke-linecap: square"/>
     </g>
     <g id="line2d_2"/>
     <g id="text_1">
      <text style="font-size: 12px; font-family: 'DejaVu Sans'; text-anchor: middle; fill: #71868a" x="160.272" y="227.277187" transform="rotate(-0 160.272 227.277187)">1</text>
     </g>
    </g>
    <g id="xtick_2">
     <g id="line2d_3">
      <path d="M 242.676 209.16
L 242.676 35.28
" clip-path="url(#p2ff29ade0c)" style="fill: none; stroke: #e6eeee; stroke-width: 0.8; stroke-linecap: square"/>
     </g>
     <g id="line2d_4"/>
     <g id="text_2">
      <text style="font-size: 12px; font-family: 'DejaVu Sans'; text-anchor: middle; fill: #71868a" x="242.676" y="227.277187" transform="rotate(-0 242.676 227.277187)">2</text>
     </g>
    </g>
    <g id="xtick_3">
     <g id="line2d_5">
      <path d="M 325.08 209.16
L 325.08 35.28
" clip-path="url(#p2ff29ade0c)" style="fill: none; stroke: #e6eeee; stroke-width: 0.8; stroke-linecap: square"/>
     </g>
     <g id="line2d_6"/>
     <g id="text_3">
      <text style="font-size: 12px; font-family: 'DejaVu Sans'; text-anchor: middle; fill: #71868a" x="325.08" y="227.277187" transform="rotate(-0 325.08 227.277187)">3</text>
     </g>
    </g>
    <g id="xtick_4">
     <g id="line2d_7">
      <path d="M 407.484 209.16
L 407.484 35.28
" clip-path="url(#p2ff29ade0c)" style="fill: none; stroke: #e6eeee; stroke-width: 0.8; stroke-linecap: square"/>
     </g>
     <g id="line2d_8"/>
     <g id="text_4">
      <text style="font-size: 12px; font-family: 'DejaVu Sans'; text-anchor: middle; fill: #71868a" x="407.484" y="227.277187" transform="rotate(-0 407.484 227.277187)">4</text>
     </g>
    </g>
    <g id="xtick_5">
     <g id="line2d_9">
      <path d="M 489.888 209.16
L 489.888 35.28
" clip-path="url(#p2ff29ade0c)" style="fill: none; stroke: #e6eeee; stroke-width: 0.8; stroke-linecap: square"/>
     </g>
     <g id="line2d_10"/>
     <g id="text_5">
      <text style="font-size: 12px; font-family: 'DejaVu Sans'; text-anchor: middle; fill: #71868a" x="489.888" y="227.277187" transform="rotate(-0 489.888 227.277187)">5</text>
     </g>
    </g>
    <g id="text_6">
     <text style="font-size: 11px; font-family: 'DejaVu Sans'; text-anchor: middle; fill: #62767a" x="325.08" y="248.518281" transform="rotate(-0 325.08 248.518281)">Mean opinion score (1–5) ↑</text>
    </g>
   </g>
   <g id="matplotlib.axis_2">
    <g id="ytick_1">
     <g id="line2d_11"/>
     <g id="text_7">
      <text style="font-size: 12px; font-family: 'DejaVu Sans'; text-anchor: end; fill: #263f47" x="151.272" y="63.747094" transform="rotate(-0 151.272 63.747094)">Concat.</text>
     </g>
    </g>
    <g id="ytick_2">
     <g id="line2d_12"/>
     <g id="text_8">
      <text style="font-size: 12px; font-family: 'DejaVu Sans'; text-anchor: end; fill: #263f47" x="151.272" y="107.217563" transform="rotate(-0 151.272 107.217563)">Joint</text>
     </g>
    </g>
    <g id="ytick_3">
     <g id="line2d_13"/>
     <g id="text_9">
      <text style="font-size: 12px; font-family: 'DejaVu Sans'; text-anchor: end; fill: #263f47" x="151.272" y="150.687563" transform="rotate(-0 151.272 150.687563)">TED-TTS adaptation</text>
     </g>
    </g>
    <g id="ytick_4">
     <g id="line2d_14"/>
     <g id="text_10">
      <text style="font-weight: 700; font-size: 12px; font-family: 'DejaVu Sans'; text-anchor: end; fill: #0072b2" x="151.272" y="194.157094" transform="rotate(-0 151.272 194.157094)">EDICT</text>
     </g>
    </g>
   </g>
   <g id="LineCollection_1">
    <path d="M 242.676 59.1885
L 255.86064 59.1885
" clip-path="url(#p2ff29ade0c)" style="fill: none; stroke: #879597; stroke-width: 1.4"/>
   </g>
   <g id="line2d_15">
    <defs>
     <path id="m2935c28ef0" d="M 0 3
L 0 -3
" style="stroke: #879597; stroke-width: 1.2"/>
    </defs>
    <g clip-path="url(#p2ff29ade0c)">
     <use xlink:href="#m2935c28ef0" x="242.676" y="59.1885" style="fill: #879597; stroke: #879597; stroke-width: 1.2"/>
    </g>
   </g>
   <g id="line2d_16">
    <g clip-path="url(#p2ff29ade0c)">
     <use xlink:href="#m2935c28ef0" x="255.86064" y="59.1885" style="fill: #879597; stroke: #879597; stroke-width: 1.2"/>
    </g>
   </g>
   <g id="text_11">
    <text style="font-size: 11.5px; font-family: 'DejaVu Sans'; text-anchor: start; fill: #5e7377" x="516.25728" y="62.175805" transform="rotate(-0 516.25728 62.175805)">2.08 ± 0.08</text>
   </g>
   <g id="LineCollection_2">
    <path d="M 408.30804 102.6585
L 423.14076 102.6585
" clip-path="url(#p2ff29ade0c)" style="fill: none; stroke: #879597; stroke-width: 1.4"/>
   </g>
   <g id="line2d_17">
    <g clip-path="url(#p2ff29ade0c)">
     <use xlink:href="#m2935c28ef0" x="408.30804" y="102.6585" style="fill: #879597; stroke: #879597; stroke-width: 1.2"/>
    </g>
   </g>
   <g id="line2d_18">
    <g clip-path="url(#p2ff29ade0c)">
     <use xlink:href="#m2935c28ef0" x="423.14076" y="102.6585" style="fill: #879597; stroke: #879597; stroke-width: 1.2"/>
    </g>
   </g>
   <g id="text_12">
    <text style="font-size: 11.5px; font-family: 'DejaVu Sans'; text-anchor: start; fill: #5e7377" x="516.25728" y="105.645805" transform="rotate(-0 516.25728 105.645805)">4.10 ± 0.09</text>
   </g>
   <g id="LineCollection_3">
    <path d="M 393.47532 146.1285
L 411.6042 146.1285
" clip-path="url(#p2ff29ade0c)" style="fill: none; stroke: #879597; stroke-width: 1.4"/>
   </g>
   <g id="line2d_19">
    <g clip-path="url(#p2ff29ade0c)">
     <use xlink:href="#m2935c28ef0" x="393.47532" y="146.1285" style="fill: #879597; stroke: #879597; stroke-width: 1.2"/>
    </g>
   </g>
   <g id="line2d_20">
    <g clip-path="url(#p2ff29ade0c)">
     <use xlink:href="#m2935c28ef0" x="411.6042" y="146.1285" style="fill: #879597; stroke: #879597; stroke-width: 1.2"/>
    </g>
   </g>
   <g id="text_13">
    <text style="font-size: 11.5px; font-family: 'DejaVu Sans'; text-anchor: start; fill: #5e7377" x="516.25728" y="149.115805" transform="rotate(-0 516.25728 149.115805)">3.94 ± 0.11</text>
   </g>
   <g id="LineCollection_4">
    <path d="M 410.78016 189.5985
L 422.31672 189.5985
" clip-path="url(#p2ff29ade0c)" style="fill: none; stroke: #0072b2; stroke-width: 1.4"/>
   </g>
   <g id="line2d_21">
    <defs>
     <path id="m919df42763" d="M 0 3
L 0 -3
" style="stroke: #0072b2; stroke-width: 1.2"/>
    </defs>
    <g clip-path="url(#p2ff29ade0c)">
     <use xlink:href="#m919df42763" x="410.78016" y="189.5985" style="fill: #0072b2; stroke: #0072b2; stroke-width: 1.2"/>
    </g>
   </g>
   <g id="line2d_22">
    <g clip-path="url(#p2ff29ade0c)">
     <use xlink:href="#m919df42763" x="422.31672" y="189.5985" style="fill: #0072b2; stroke: #0072b2; stroke-width: 1.2"/>
    </g>
   </g>
   <g id="text_14">
    <text style="font-weight: 700; font-size: 11.5px; font-family: 'DejaVu Sans'; text-anchor: start; fill: #0072b2" x="516.25728" y="192.585805" transform="rotate(-0 516.25728 192.585805)">4.11 ± 0.07</text>
   </g>
   <g id="text_15">
    <text style="font-size: 9px; font-family: 'DejaVu Sans'; text-anchor: start; fill: #7b8e91" x="5.35248" y="25.7166" transform="rotate(-0 5.35248 25.7166)">SYSTEM</text>
   </g>
   <g id="text_16">
    <text style="font-size: 9px; font-family: 'DejaVu Sans'; text-anchor: start; fill: #7b8e91" x="516.25728" y="25.7166" transform="rotate(-0 516.25728 25.7166)">MEAN ± CI</text>
   </g>
   <g id="line2d_23">
    <defs>
     <path id="m1d02518c17" d="M 0 3.25
C 0.86191 3.25 1.688635 2.907559 2.298097 2.298097
C 2.907559 1.688635 3.25 0.86191 3.25 0
C 3.25 -0.86191 2.907559 -1.688635 2.298097 -2.298097
C 1.688635 -2.907559 0.86191 -3.25 0 -3.25
C -0.86191 -3.25 -1.688635 -2.907559 -2.298097 -2.298097
C -2.907559 -1.688635 -3.25 -0.86191 -3.25 0
C -3.25 0.86191 -2.907559 1.688635 -2.298097 2.298097
C -1.688635 2.907559 -0.86191 3.25 0 3.25
z
" style="stroke: #879597; stroke-width: 1.2"/>
    </defs>
    <g clip-path="url(#p2ff29ade0c)">
     <use xlink:href="#m1d02518c17" x="249.26832" y="59.1885" style="fill: #879597; stroke: #879597; stroke-width: 1.2"/>
    </g>
   </g>
   <g id="line2d_24">
    <g clip-path="url(#p2ff29ade0c)">
     <use xlink:href="#m1d02518c17" x="415.7244" y="102.6585" style="fill: #879597; stroke: #879597; stroke-width: 1.2"/>
    </g>
   </g>
   <g id="line2d_25">
    <g clip-path="url(#p2ff29ade0c)">
     <use xlink:href="#m1d02518c17" x="402.53976" y="146.1285" style="fill: #879597; stroke: #879597; stroke-width: 1.2"/>
    </g>
   </g>
   <g id="line2d_26">
    <defs>
     <path id="m84047be16d" d="M 0 3.25
C 0.86191 3.25 1.688635 2.907559 2.298097 2.298097
C 2.907559 1.688635 3.25 0.86191 3.25 0
C 3.25 -0.86191 2.907559 -1.688635 2.298097 -2.298097
C 1.688635 -2.907559 0.86191 -3.25 0 -3.25
C -0.86191 -3.25 -1.688635 -2.907559 -2.298097 -2.298097
C -2.907559 -1.688635 -3.25 -0.86191 -3.25 0
C -3.25 0.86191 -2.907559 1.688635 -2.298097 2.298097
C -1.688635 2.907559 -0.86191 3.25 0 3.25
z
" style="stroke: #0072b2; stroke-width: 1.2"/>
    </defs>
    <g clip-path="url(#p2ff29ade0c)">
     <use xlink:href="#m84047be16d" x="416.54844" y="189.5985" style="fill: #0072b2; stroke: #0072b2; stroke-width: 1.2"/>
    </g>
   </g>
  </g>
 </g>
 <defs>
  <clipPath id="p2ff29ade0c">
   <rect x="160.272" y="35.28" width="329.616" height="173.88"/>
  </clipPath>
 </defs>
</svg>
